# xmcd CD database file
#
# Track frame offsets:
#	150
#	22881
#	40259
#	58324
#	76424
#	100158
#	112522
#	128928
#	151511
#	171806
#	188253
#	207494
#	225976
#	246433
#
# Disc length: 3528 seconds
#
# Revision: 0
# Processed by: cddbd v1.5.2PL0 Copyright (c) Steve Scherf et al.
# Submitted via: CDex 1.70beta2
#
DISCID=a20dc60e
DTITLE=Paul Anka - Rock Swing
DYEAR=2005
DGENRE=Jazz
TTITLE0=It's My Life
TTITLE1=True
TTITLE2=Eye Of The Tiger
TTITLE3=Everybody Hurts
TTITLE4=Wonderwall
TTITLE5=Black Hole Sun
TTITLE6=It's A Sin
TTITLE7=Jump
TTITLE8=Smells Like Teen Spirit
TTITLE9=Hello
TTITLE10=Eyes Without A Face
TTITLE11=The Lovecats
TTITLE12=The Way You Make Me Feel
TTITLE13=Tears In Heaven
EXTD=YEAR: 2005
EXTT0=
EXTT1=
EXTT2=
EXTT3=
EXTT4=
EXTT5=
EXTT6=
EXTT7=
EXTT8=
EXTT9=
EXTT10=
EXTT11=
EXTT12=
EXTT13=
PLAYORDER=
